<svg width="24" height="24" viewBox="0 0 24 24" fill="none" xmlns="http://www.w3.org/2000/svg">
    <path
        d="M11.5862 2.89655V0.413793C11.5862 0.304048 11.6298 0.198798 11.7074 0.121197C11.785 0.0435959 11.8903 0 12 0C12.1097 0 12.215 0.0435959 12.2926 0.121197C12.3702 0.198798 12.4138 0.304048 12.4138 0.413793V2.89655C12.4138 3.0063 12.3702 3.11155 12.2926 3.18915C12.215 3.26675 12.1097 3.31034 12 3.31034C11.8903 3.31034 11.785 3.26675 11.7074 3.18915C11.6298 3.11155 11.5862 3.0063 11.5862 2.89655ZM18.2069 12C18.2069 13.2276 17.8429 14.4276 17.1608 15.4484C16.4788 16.4691 15.5094 17.2646 14.3753 17.7344C13.2411 18.2042 11.9931 18.3271 10.7891 18.0876C9.58507 17.8481 8.47911 17.257 7.61106 16.3889C6.74301 15.5209 6.15186 14.4149 5.91237 13.2109C5.67287 12.0069 5.79579 10.7589 6.26558 9.62472C6.73536 8.49056 7.53091 7.52118 8.55163 6.83915C9.57235 6.15713 10.7724 5.7931 12 5.7931C13.6456 5.79502 15.2232 6.44957 16.3868 7.61318C17.5504 8.77678 18.205 10.3544 18.2069 12ZM17.3793 12C17.3793 10.9361 17.0638 9.89604 16.4727 9.01142C15.8816 8.12679 15.0415 7.43731 14.0586 7.03017C13.0756 6.62302 11.994 6.51649 10.9505 6.72405C9.90706 6.93161 8.94856 7.44394 8.19625 8.19625C7.44394 8.94856 6.93161 9.90706 6.72405 10.9505C6.51649 11.994 6.62302 13.0756 7.03017 14.0586C7.43731 15.0415 8.12679 15.8816 9.01142 16.4727C9.89604 17.0638 10.9361 17.3793 12 17.3793C13.4262 17.3777 14.7935 16.8104 15.8019 15.8019C16.8104 14.7935 17.3777 13.4262 17.3793 12ZM5.08655 5.67207C5.1642 5.74971 5.2695 5.79333 5.37931 5.79333C5.48912 5.79333 5.59442 5.74971 5.67207 5.67207C5.74971 5.59442 5.79333 5.48912 5.79333 5.37931C5.79333 5.2695 5.74971 5.1642 5.67207 5.08655L4.0169 3.43138C3.93925 3.35373 3.83394 3.31011 3.72414 3.31011C3.61433 3.31011 3.50902 3.35373 3.43138 3.43138C3.35373 3.50902 3.31011 3.61433 3.31011 3.72414C3.31011 3.83394 3.35373 3.93925 3.43138 4.0169L5.08655 5.67207ZM5.08655 18.3279L3.43138 19.9831C3.39293 20.0215 3.36244 20.0672 3.34163 20.1174C3.32082 20.1677 3.31011 20.2215 3.31011 20.2759C3.31011 20.3302 3.32082 20.3841 3.34163 20.4343C3.36244 20.4845 3.39293 20.5302 3.43138 20.5686C3.46982 20.6071 3.51547 20.6376 3.5657 20.6584C3.61593 20.6792 3.66977 20.6899 3.72414 20.6899C3.77851 20.6899 3.83235 20.6792 3.88258 20.6584C3.93281 20.6376 3.97845 20.6071 4.0169 20.5686L5.67207 18.9134C5.74971 18.8358 5.79333 18.7305 5.79333 18.6207C5.79333 18.5109 5.74971 18.4056 5.67207 18.3279C5.59442 18.2503 5.48912 18.2067 5.37931 18.2067C5.2695 18.2067 5.1642 18.2503 5.08655 18.3279ZM18.6207 5.7931C18.675 5.79315 18.7289 5.78248 18.7791 5.76171C18.8293 5.74094 18.875 5.71048 18.9134 5.67207L20.5686 4.0169C20.6071 3.97845 20.6376 3.93281 20.6584 3.88258C20.6792 3.83235 20.6899 3.77851 20.6899 3.72414C20.6899 3.66977 20.6792 3.61593 20.6584 3.5657C20.6376 3.51547 20.6071 3.46982 20.5686 3.43138C20.5302 3.39293 20.4845 3.36244 20.4343 3.34163C20.3841 3.32082 20.3302 3.31011 20.2759 3.31011C20.2215 3.31011 20.1677 3.32082 20.1174 3.34163C20.0672 3.36244 20.0215 3.39293 19.9831 3.43138L18.3279 5.08655C18.27 5.14442 18.2305 5.21818 18.2145 5.29849C18.1985 5.3788 18.2067 5.46206 18.2381 5.53771C18.2694 5.61336 18.3225 5.67801 18.3906 5.72347C18.4587 5.76893 18.5388 5.79317 18.6207 5.7931ZM18.9134 18.3279C18.8358 18.2503 18.7305 18.2067 18.6207 18.2067C18.5109 18.2067 18.4056 18.2503 18.3279 18.3279C18.2503 18.4056 18.2067 18.5109 18.2067 18.6207C18.2067 18.7305 18.2503 18.8358 18.3279 18.9134L19.9831 20.5686C20.0215 20.6071 20.0672 20.6376 20.1174 20.6584C20.1677 20.6792 20.2215 20.6899 20.2759 20.6899C20.3302 20.6899 20.3841 20.6792 20.4343 20.6584C20.4845 20.6376 20.5302 20.6071 20.5686 20.5686C20.6071 20.5302 20.6376 20.4845 20.6584 20.4343C20.6792 20.3841 20.6899 20.3302 20.6899 20.2759C20.6899 20.2215 20.6792 20.1677 20.6584 20.1174C20.6376 20.0672 20.6071 20.0215 20.5686 19.9831L18.9134 18.3279ZM2.89655 11.5862H0.413793C0.304048 11.5862 0.198798 11.6298 0.121197 11.7074C0.0435959 11.785 0 11.8903 0 12C0 12.1097 0.0435959 12.215 0.121197 12.2926C0.198798 12.3702 0.304048 12.4138 0.413793 12.4138H2.89655C3.0063 12.4138 3.11155 12.3702 3.18915 12.2926C3.26675 12.215 3.31034 12.1097 3.31034 12C3.31034 11.8903 3.26675 11.785 3.18915 11.7074C3.11155 11.6298 3.0063 11.5862 2.89655 11.5862ZM12 20.6897C11.8903 20.6897 11.785 20.7333 11.7074 20.8109C11.6298 20.8885 11.5862 20.9937 11.5862 21.1034V23.5862C11.5862 23.696 11.6298 23.8012 11.7074 23.8788C11.785 23.9564 11.8903 24 12 24C12.1097 24 12.215 23.9564 12.2926 23.8788C12.3702 23.8012 12.4138 23.696 12.4138 23.5862V21.1034C12.4138 20.9937 12.3702 20.8885 12.2926 20.8109C12.215 20.7333 12.1097 20.6897 12 20.6897ZM23.5862 11.5862H21.1034C20.9937 11.5862 20.8885 11.6298 20.8109 11.7074C20.7333 11.785 20.6897 11.8903 20.6897 12C20.6897 12.1097 20.7333 12.215 20.8109 12.2926C20.8885 12.3702 20.9937 12.4138 21.1034 12.4138H23.5862C23.696 12.4138 23.8012 12.3702 23.8788 12.2926C23.9564 12.215 24 12.1097 24 12C24 11.8903 23.9564 11.785 23.8788 11.7074C23.8012 11.6298 23.696 11.5862 23.5862 11.5862Z"
        fill="white" />
</svg>