<svg width="25" height="25" viewBox="0 0 25 25" fill="none" xmlns="http://www.w3.org/2000/svg">
<path d="M21.25 3.59251C18.9217 1.2872 15.7765 -0.00415018 12.5 1.00207e-05H12.375C9.0815 0.0329466 5.9341 1.36443 3.61686 3.70508C1.29962 6.04572 -0.000164672 9.20635 1.56479e-08 12.5C1.56479e-08 17.6525 3.19375 21.9813 8.33625 23.7975C8.71438 23.9316 9.11254 24.0005 9.51375 24.0013C10.4398 23.9976 11.3267 23.6271 11.9802 22.9708C12.6336 22.3146 13.0003 21.4261 13 20.5C13 19.837 13.2634 19.2011 13.7322 18.7322C14.2011 18.2634 14.837 18 15.5 18H21.2763C22.07 18.0038 22.8411 17.7361 23.4618 17.2414C24.0825 16.7466 24.5154 16.0546 24.6887 15.28C24.9039 14.3328 25.0084 13.3638 25 12.3925C24.9883 10.7505 24.6509 9.12719 24.0071 7.6166C23.3634 6.10601 22.4263 4.73822 21.25 3.59251ZM23.7175 15.0575C23.5934 15.6113 23.2836 16.106 22.8395 16.4593C22.3954 16.8127 21.8438 17.0035 21.2763 17H15.5C14.5717 17 13.6815 17.3688 13.0251 18.0251C12.3687 18.6815 12 19.5718 12 20.5C11.9993 20.8993 11.903 21.2926 11.7191 21.647C11.5352 22.0014 11.2691 22.3066 10.943 22.5371C10.617 22.7675 10.2404 22.9165 9.84499 22.9716C9.44953 23.0267 9.04663 22.9863 8.67 22.8538C3.93875 21.1825 1 17.215 1 12.5C0.999838 9.47048 2.19513 6.56327 4.32618 4.40998C6.45723 2.25669 9.35189 1.03129 12.3813 1.00001H12.5C14.2278 0.999561 15.9334 1.38843 17.4903 2.13773C19.0471 2.88703 20.4151 3.97749 21.4926 5.32811C22.5702 6.67873 23.3295 8.25478 23.7142 9.93917C24.099 11.6236 24.0992 13.373 23.715 15.0575H23.7175ZM13.5 6.00001C13.5 6.19779 13.4414 6.39113 13.3315 6.55558C13.2216 6.72003 13.0654 6.8482 12.8827 6.92389C12.7 6.99958 12.4989 7.01938 12.3049 6.9808C12.1109 6.94221 11.9327 6.84697 11.7929 6.70712C11.653 6.56726 11.5578 6.38908 11.5192 6.1951C11.4806 6.00112 11.5004 5.80005 11.5761 5.61733C11.6518 5.4346 11.78 5.27842 11.9444 5.16854C12.1089 5.05866 12.3022 5.00001 12.5 5.00001C12.7652 5.00001 13.0196 5.10537 13.2071 5.2929C13.3946 5.48044 13.5 5.73479 13.5 6.00001ZM8 9.00001C8 9.19779 7.94135 9.39113 7.83147 9.55558C7.72159 9.72003 7.56541 9.8482 7.38268 9.92389C7.19996 9.99958 6.99889 10.0194 6.80491 9.9808C6.61093 9.94221 6.43275 9.84697 6.29289 9.70712C6.15304 9.56726 6.0578 9.38908 6.01921 9.1951C5.98063 9.00112 6.00043 8.80005 6.07612 8.61733C6.15181 8.4346 6.27998 8.27842 6.44443 8.16854C6.60888 8.05866 6.80222 8.00001 7 8.00001C7.26522 8.00001 7.51957 8.10537 7.70711 8.2929C7.89464 8.48044 8 8.73479 8 9.00001ZM8 16C8 16.1978 7.94135 16.3911 7.83147 16.5556C7.72159 16.72 7.56541 16.8482 7.38268 16.9239C7.19996 16.9996 6.99889 17.0194 6.80491 16.9808C6.61093 16.9422 6.43275 16.847 6.29289 16.7071C6.15304 16.5673 6.0578 16.3891 6.01921 16.1951C5.98063 16.0011 6.00043 15.8001 6.07612 15.6173C6.15181 15.4346 6.27998 15.2784 6.44443 15.1685C6.60888 15.0587 6.80222 15 7 15C7.26522 15 7.51957 15.1054 7.70711 15.2929C7.89464 15.4804 8 15.7348 8 16ZM19 9.00001C19 9.19779 18.9414 9.39113 18.8315 9.55558C18.7216 9.72003 18.5654 9.8482 18.3827 9.92389C18.2 9.99958 17.9989 10.0194 17.8049 9.9808C17.6109 9.94221 17.4327 9.84697 17.2929 9.70712C17.153 9.56726 17.0578 9.38908 17.0192 9.1951C16.9806 9.00112 17.0004 8.80005 17.0761 8.61733C17.1518 8.4346 17.28 8.27842 17.4444 8.16854C17.6089 8.05866 17.8022 8.00001 18 8.00001C18.2652 8.00001 18.5196 8.10537 18.7071 8.2929C18.8946 8.48044 19 8.73479 19 9.00001Z" fill="white"/>
</svg>
