<svg width="24" height="24" viewBox="0 0 24 24" fill="none" xmlns="http://www.w3.org/2000/svg">
    <path
        d="M12 0C9.62663 0 7.30655 0.703788 5.33316 2.02236C3.35977 3.34094 1.8217 5.21508 0.913451 7.4078C0.00519922 9.60051 -0.232441 12.0133 0.230582 14.3411C0.693605 16.6689 1.83649 18.807 3.51472 20.4853C5.19295 22.1635 7.33115 23.3064 9.65892 23.7694C11.9867 24.2324 14.3995 23.9948 16.5922 23.0865C18.7849 22.1783 20.6591 20.6402 21.9776 18.6668C23.2962 16.6934 24 14.3734 24 12C23.9965 8.81847 22.7311 5.76826 20.4814 3.51858C18.2317 1.2689 15.1815 0.00349392 12 0ZM12.48 0.9708C13.4585 1.0125 14.4271 1.18483 15.36 1.4832V22.5168C14.4271 22.8152 13.4585 22.9875 12.48 23.0292V0.9708ZM16.32 1.8408C17.3669 2.28902 18.3383 2.89617 19.2 3.6408V20.3628C18.3383 21.1074 17.3669 21.7146 16.32 22.1628V1.8408ZM0.960005 12C0.963348 9.15614 2.06268 6.42299 4.02943 4.36886C5.99617 2.31473 8.67898 1.09769 11.52 0.9708V23.0292C8.67898 22.9023 5.99617 21.6853 4.02943 19.6311C2.06268 17.577 0.963348 14.8439 0.960005 12ZM20.16 19.428V4.572C22.0127 6.60222 23.0398 9.2515 23.0398 12C23.0398 14.7485 22.0127 17.3978 20.16 19.428Z"
        fill="white" />
</svg>