<svg width="16" height="16" viewBox="0 0 16 16" fill="none" xmlns="http://www.w3.org/2000/svg">
<g id="text 2" opacity="0.8">
<path id="Vector" d="M9.14371 12.7431L5.39371 2.7431C5.34458 2.61205 5.25662 2.49911 5.14158 2.41938C5.02655 2.33965 4.88992 2.29694 4.74996 2.29694C4.61 2.29694 4.47337 2.33965 4.35834 2.41938C4.2433 2.49911 4.15534 2.61205 4.10621 2.7431L0.356211 12.7431C0.294188 12.9134 0.301914 13.1013 0.377707 13.2659C0.453501 13.4305 0.591231 13.5586 0.760937 13.6222C0.930644 13.6858 1.1186 13.6798 1.28392 13.6055C1.44923 13.5312 1.57854 13.3947 1.64371 13.2256L2.77371 10.2125C2.77816 10.2006 2.78614 10.1903 2.79658 10.183C2.80702 10.1758 2.81943 10.1719 2.83215 10.1719H6.66777C6.68049 10.1719 6.6929 10.1758 6.70334 10.183C6.71378 10.1903 6.72176 10.2006 6.72621 10.2125L7.85621 13.2256C7.92138 13.3947 8.05069 13.5312 8.21601 13.6055C8.38132 13.6798 8.56928 13.6858 8.73898 13.6222C8.90869 13.5586 9.04642 13.4305 9.12221 13.2659C9.19801 13.1013 9.20573 12.9134 9.14371 12.7431ZM3.33621 8.71185L4.69152 5.09779C4.69602 5.08593 4.70402 5.07572 4.71446 5.06852C4.7249 5.06131 4.73728 5.05745 4.74996 5.05745C4.76264 5.05745 4.77503 5.06131 4.78546 5.06852C4.7959 5.07572 4.8039 5.08593 4.8084 5.09779L6.16371 8.71248C6.16724 8.72192 6.16843 8.73208 6.16718 8.74209C6.16594 8.75209 6.16229 8.76165 6.15654 8.76994C6.1508 8.77823 6.14314 8.785 6.13421 8.78969C6.12529 8.79438 6.11536 8.79683 6.10527 8.79685H3.39465C3.38456 8.79683 3.37464 8.79438 3.36571 8.78969C3.35678 8.785 3.34912 8.77823 3.34338 8.76994C3.33764 8.76165 3.33399 8.75209 3.33274 8.74209C3.33149 8.73208 3.33268 8.72192 3.33621 8.71248V8.71185ZM12.524 5.29685C11.2203 5.28748 10.0528 6.04279 9.55527 7.2156C9.484 7.38343 9.48231 7.57271 9.55058 7.74178C9.61886 7.91086 9.7515 8.04589 9.91934 8.11716C10.0872 8.18844 10.2764 8.19013 10.4455 8.12185C10.6146 8.05358 10.7496 7.92093 10.8209 7.7531C11.0984 7.10029 11.7512 6.67685 12.4871 6.67185C13.4971 6.66498 14.3125 7.49998 14.3125 8.51091C14.3125 8.52308 14.3077 8.53477 14.2993 8.54352C14.2908 8.55227 14.2793 8.55738 14.2671 8.55779C13.5821 8.57685 12.7696 8.62248 12.0446 8.70779C10.3337 8.90904 9.31246 9.84185 9.31246 11.2031C9.31246 11.9278 9.58621 12.5781 10.0834 13.0369C10.55 13.4665 11.1875 13.7031 11.875 13.7031C12.8437 13.7031 13.6778 13.4531 14.3106 12.9775H14.3125C14.3121 13.0678 14.3295 13.1572 14.3637 13.2408C14.3978 13.3244 14.4482 13.4004 14.5117 13.4645C14.5753 13.5286 14.6509 13.5796 14.7341 13.6145C14.8174 13.6494 14.9067 13.6676 14.997 13.6679C15.0873 13.6683 15.1768 13.6509 15.2603 13.6167C15.3439 13.5826 15.4199 13.5322 15.484 13.4687C15.5481 13.4051 15.5991 13.3295 15.634 13.2463C15.6689 13.163 15.6871 13.0737 15.6875 12.9834V8.51466C15.6875 6.75904 14.2812 5.30966 12.524 5.29685ZM11.875 12.3281C11.3271 12.3281 10.6875 12.0334 10.6875 11.2031C10.6875 10.8697 10.8071 10.6362 11.0759 10.4459C11.3375 10.2606 11.7384 10.1284 12.2053 10.0734C12.8653 9.9956 13.6059 9.95279 14.2409 9.93373C14.2494 9.93372 14.2578 9.93543 14.2656 9.93877C14.2734 9.9421 14.2804 9.94699 14.2862 9.95312C14.2921 9.95926 14.2966 9.96653 14.2996 9.97447C14.3025 9.98242 14.3038 9.99089 14.3034 9.99935C14.2187 11.5656 13.4206 12.3281 11.875 12.3281Z" fill="white"/>
</g>
</svg>
