<svg width="364" height="16" viewBox="0 0 364 16" fill="none" xmlns="http://www.w3.org/2000/svg">
    <g clip-path="url(#clip0_506_315)">
        <rect y="4" width="324" height="8" rx="4" fill="#E3E3ED" />
        <rect y="4" width="324" height="8" fill="#73B172" />
    </g>
    <path
        d="M336.6 3.27273V12H335.279V4.59375H335.228L333.14 5.95739V4.69602L335.317 3.27273H336.6ZM341.999 12.1449C341.326 12.142 340.75 11.9645 340.273 11.6122C339.796 11.2599 339.431 10.7472 339.178 10.0739C338.925 9.40057 338.799 8.58949 338.799 7.64062C338.799 6.6946 338.925 5.88636 339.178 5.21591C339.434 4.54545 339.8 4.03409 340.277 3.68182C340.757 3.32955 341.331 3.15341 341.999 3.15341C342.667 3.15341 343.239 3.33097 343.716 3.68608C344.194 4.03835 344.559 4.54972 344.811 5.22017C345.067 5.88778 345.195 6.6946 345.195 7.64062C345.195 8.59233 345.069 9.40483 344.816 10.0781C344.563 10.7486 344.198 11.2614 343.721 11.6165C343.243 11.9688 342.669 12.1449 341.999 12.1449ZM341.999 11.0071C342.59 11.0071 343.051 10.7188 343.384 10.142C343.719 9.56534 343.887 8.73153 343.887 7.64062C343.887 6.91619 343.81 6.30398 343.657 5.80398C343.506 5.30114 343.289 4.92045 343.005 4.66193C342.723 4.40057 342.388 4.26989 341.999 4.26989C341.411 4.26989 340.949 4.55966 340.614 5.1392C340.279 5.71875 340.11 6.55256 340.107 7.64062C340.107 8.3679 340.182 8.98295 340.333 9.4858C340.486 9.9858 340.703 10.3651 340.985 10.6236C341.266 10.8793 341.604 11.0071 341.999 11.0071ZM349.745 12.1449C349.072 12.142 348.496 11.9645 348.019 11.6122C347.542 11.2599 347.177 10.7472 346.924 10.0739C346.671 9.40057 346.545 8.58949 346.545 7.64062C346.545 6.6946 346.671 5.88636 346.924 5.21591C347.18 4.54545 347.546 4.03409 348.023 3.68182C348.504 3.32955 349.077 3.15341 349.745 3.15341C350.413 3.15341 350.985 3.33097 351.462 3.68608C351.94 4.03835 352.305 4.54972 352.558 5.22017C352.813 5.88778 352.941 6.6946 352.941 7.64062C352.941 8.59233 352.815 9.40483 352.562 10.0781C352.309 10.7486 351.944 11.2614 351.467 11.6165C350.989 11.9688 350.415 12.1449 349.745 12.1449ZM349.745 11.0071C350.336 11.0071 350.798 10.7188 351.13 10.142C351.465 9.56534 351.633 8.73153 351.633 7.64062C351.633 6.91619 351.556 6.30398 351.403 5.80398C351.252 5.30114 351.035 4.92045 350.751 4.66193C350.469 4.40057 350.134 4.26989 349.745 4.26989C349.157 4.26989 348.695 4.55966 348.36 5.1392C348.025 5.71875 347.856 6.55256 347.853 7.64062C347.853 8.3679 347.928 8.98295 348.079 9.4858C348.232 9.9858 348.45 10.3651 348.731 10.6236C349.012 10.8793 349.35 11.0071 349.745 11.0071ZM359.008 10.3636V9.90341C359.008 9.57386 359.076 9.27273 359.213 9C359.352 8.72443 359.554 8.50426 359.818 8.33949C360.085 8.17187 360.407 8.08807 360.785 8.08807C361.172 8.08807 361.495 8.17045 361.757 8.33523C362.018 8.5 362.216 8.72017 362.349 8.99574C362.485 9.27131 362.554 9.57386 362.554 9.90341V10.3636C362.554 10.6932 362.485 10.9957 362.349 11.2713C362.213 11.544 362.012 11.7642 361.748 11.9318C361.487 12.0966 361.166 12.179 360.785 12.179C360.402 12.179 360.078 12.0966 359.814 11.9318C359.549 11.7642 359.349 11.544 359.213 11.2713C359.076 10.9957 359.008 10.6932 359.008 10.3636ZM360.001 9.90341V10.3636C360.001 10.608 360.059 10.8295 360.176 11.0284C360.292 11.2273 360.495 11.3267 360.785 11.3267C361.072 11.3267 361.272 11.2273 361.386 11.0284C361.5 10.8295 361.556 10.608 361.556 10.3636V9.90341C361.556 9.65909 361.501 9.4375 361.39 9.23864C361.282 9.03977 361.081 8.94034 360.785 8.94034C360.501 8.94034 360.299 9.03977 360.18 9.23864C360.061 9.4375 360.001 9.65909 360.001 9.90341ZM354.619 5.36932V4.90909C354.619 4.57955 354.687 4.27699 354.824 4.00142C354.963 3.72585 355.164 3.50568 355.429 3.34091C355.696 3.17614 356.018 3.09375 356.396 3.09375C356.782 3.09375 357.106 3.17614 357.368 3.34091C357.629 3.50568 357.826 3.72585 357.96 4.00142C358.093 4.27699 358.16 4.57955 358.16 4.90909V5.36932C358.16 5.69886 358.092 6.00142 357.956 6.27699C357.822 6.54972 357.623 6.76989 357.359 6.9375C357.098 7.10227 356.777 7.18466 356.396 7.18466C356.01 7.18466 355.684 7.10227 355.42 6.9375C355.159 6.76989 354.96 6.54972 354.824 6.27699C354.687 6.00142 354.619 5.69886 354.619 5.36932ZM355.616 4.90909V5.36932C355.616 5.61364 355.673 5.83523 355.787 6.03409C355.903 6.23295 356.106 6.33239 356.396 6.33239C356.68 6.33239 356.879 6.23295 356.993 6.03409C357.109 5.83523 357.167 5.61364 357.167 5.36932V4.90909C357.167 4.66477 357.112 4.44318 357.001 4.24432C356.89 4.04545 356.689 3.94602 356.396 3.94602C356.112 3.94602 355.91 4.04545 355.791 4.24432C355.674 4.44318 355.616 4.66477 355.616 4.90909ZM355.024 12L361.024 3.27273H362.042L356.042 12H355.024Z"
        fill="#4E884D" />
    <defs>
        <clipPath id="clip0_506_315">
            <rect y="4" width="324" height="8" rx="4" fill="white" />
        </clipPath>
    </defs>
</svg>
    