<svg width="364" height="16" viewBox="0 0 364 16" fill="none" xmlns="http://www.w3.org/2000/svg">
    <g clip-path="url(#clip0_506_327)">
        <rect y="4" width="324" height="8" rx="4" fill="#E3E3ED" />
        <rect y="4" width="324" height="8" fill="#E3E3ED" />
    </g>
    <path
        d="M337.24 12V3.27273H342.712V4.40625H338.557V7.06534H342.426V8.1946H338.557V10.8665H342.763V12H337.24ZM344.368 12V5.45455H345.6V6.49432H345.668C345.787 6.14205 345.998 5.86506 346.299 5.66335C346.603 5.45881 346.946 5.35653 347.33 5.35653C347.409 5.35653 347.503 5.35937 347.611 5.36506C347.722 5.37074 347.809 5.37784 347.871 5.38636V6.60511C347.82 6.59091 347.729 6.57528 347.598 6.55824C347.468 6.53835 347.337 6.52841 347.206 6.52841C346.905 6.52841 346.637 6.59233 346.401 6.72017C346.168 6.84517 345.983 7.01989 345.847 7.24432C345.711 7.46591 345.642 7.71875 345.642 8.00284V12H344.368ZM348.974 12V5.45455H350.205V6.49432H350.273C350.393 6.14205 350.603 5.86506 350.904 5.66335C351.208 5.45881 351.552 5.35653 351.935 5.35653C352.015 5.35653 352.109 5.35937 352.217 5.36506C352.327 5.37074 352.414 5.37784 352.477 5.38636V6.60511C352.425 6.59091 352.335 6.57528 352.204 6.55824C352.073 6.53835 351.942 6.52841 351.812 6.52841C351.511 6.52841 351.242 6.59233 351.006 6.72017C350.773 6.84517 350.589 7.01989 350.452 7.24432C350.316 7.46591 350.248 7.71875 350.248 8.00284V12H348.974ZM356.102 12.1321C355.488 12.1321 354.953 11.9915 354.495 11.7102C354.038 11.429 353.683 11.0355 353.43 10.5298C353.177 10.0241 353.051 9.43324 353.051 8.7571C353.051 8.07812 353.177 7.48437 353.43 6.97585C353.683 6.46733 354.038 6.07244 354.495 5.79119C354.953 5.50994 355.488 5.36932 356.102 5.36932C356.716 5.36932 357.251 5.50994 357.708 5.79119C358.166 6.07244 358.521 6.46733 358.774 6.97585C359.027 7.48437 359.153 8.07812 359.153 8.7571C359.153 9.43324 359.027 10.0241 358.774 10.5298C358.521 11.0355 358.166 11.429 357.708 11.7102C357.251 11.9915 356.716 12.1321 356.102 12.1321ZM356.106 11.0625C356.504 11.0625 356.833 10.9574 357.095 10.7472C357.356 10.5369 357.549 10.2571 357.674 9.90767C357.802 9.55824 357.866 9.1733 357.866 8.75284C357.866 8.33523 357.802 7.9517 357.674 7.60227C357.549 7.25 357.356 6.96733 357.095 6.75426C356.833 6.54119 356.504 6.43466 356.106 6.43466C355.706 6.43466 355.373 6.54119 355.109 6.75426C354.848 6.96733 354.653 7.25 354.525 7.60227C354.4 7.9517 354.338 8.33523 354.338 8.75284C354.338 9.1733 354.4 9.55824 354.525 9.90767C354.653 10.2571 354.848 10.5369 355.109 10.7472C355.373 10.9574 355.706 11.0625 356.106 11.0625Z"
        fill="#E36363" />
    <defs>
        <clipPath id="clip0_506_327">
            <rect y="4" width="324" height="8" rx="4" fill="white" />
        </clipPath>
    </defs>
</svg>
    