<svg width="364" height="16" viewBox="0 0 364 16" fill="none" xmlns="http://www.w3.org/2000/svg">
    <rect y="4" width="324" height="8" rx="4" fill="#E3E3ED" />
    <rect y="4" width="157" height="8" fill="url(#paint0_linear_506_301)" />
    <path
        d="M335.947 10.2955V9.23011L339.719 3.27273H340.558V4.84091H340.025L337.328 9.1108V9.17898H342.497V10.2955H335.947ZM340.085 12V9.97159L340.094 9.4858V3.27273H341.342V12H340.085ZM347.029 12.1193C346.64 12.1136 346.256 12.0426 345.878 11.9062C345.503 11.7699 345.162 11.5426 344.856 11.2244C344.549 10.9062 344.303 10.4787 344.118 9.94176C343.937 9.40483 343.846 8.73437 343.846 7.9304C343.846 7.16903 343.921 6.4929 344.072 5.90199C344.225 5.31108 344.445 4.8125 344.732 4.40625C345.019 3.99716 345.366 3.68608 345.772 3.47301C346.178 3.25994 346.634 3.15341 347.14 3.15341C347.66 3.15341 348.121 3.25568 348.525 3.46023C348.928 3.66477 349.255 3.94744 349.505 4.30824C349.758 4.66903 349.918 5.07955 349.986 5.53977H348.687C348.599 5.17614 348.424 4.87926 348.162 4.64915C347.901 4.41903 347.56 4.30398 347.14 4.30398C346.501 4.30398 346.002 4.58239 345.644 5.1392C345.289 5.69602 345.11 6.47017 345.107 7.46165H345.171C345.322 7.21449 345.506 7.00426 345.725 6.83097C345.947 6.65483 346.194 6.51989 346.466 6.42614C346.742 6.32955 347.032 6.28125 347.336 6.28125C347.841 6.28125 348.299 6.40483 348.708 6.65199C349.12 6.89631 349.448 7.23437 349.692 7.66619C349.937 8.09801 350.059 8.59233 350.059 9.14915C350.059 9.70597 349.932 10.2102 349.68 10.6619C349.43 11.1136 349.077 11.4716 348.623 11.7358C348.168 11.9972 347.637 12.125 347.029 12.1193ZM347.025 11.0114C347.36 11.0114 347.66 10.929 347.924 10.7642C348.188 10.5994 348.397 10.3778 348.55 10.0994C348.704 9.82102 348.78 9.50994 348.78 9.16619C348.78 8.83097 348.705 8.52557 348.555 8.25C348.407 7.97443 348.202 7.75568 347.941 7.59375C347.682 7.43182 347.387 7.35085 347.055 7.35085C346.802 7.35085 346.567 7.39915 346.351 7.49574C346.138 7.59233 345.951 7.72585 345.789 7.89631C345.627 8.06676 345.499 8.26278 345.405 8.48438C345.314 8.70312 345.269 8.93466 345.269 9.17898C345.269 9.50568 345.344 9.80824 345.495 10.0866C345.648 10.3651 345.857 10.5895 346.121 10.7599C346.388 10.9276 346.689 11.0114 347.025 11.0114ZM356.166 10.3636V9.90341C356.166 9.57386 356.235 9.27273 356.371 9C356.51 8.72443 356.712 8.50426 356.976 8.33949C357.243 8.17187 357.566 8.08807 357.943 8.08807C358.33 8.08807 358.654 8.17045 358.915 8.33523C359.176 8.5 359.374 8.72017 359.507 8.99574C359.644 9.27131 359.712 9.57386 359.712 9.90341V10.3636C359.712 10.6932 359.644 10.9957 359.507 11.2713C359.371 11.544 359.171 11.7642 358.906 11.9318C358.645 12.0966 358.324 12.179 357.943 12.179C357.56 12.179 357.236 12.0966 356.972 11.9318C356.708 11.7642 356.507 11.544 356.371 11.2713C356.235 10.9957 356.166 10.6932 356.166 10.3636ZM357.159 9.90341V10.3636C357.159 10.608 357.218 10.8295 357.334 11.0284C357.45 11.2273 357.654 11.3267 357.943 11.3267C358.23 11.3267 358.431 11.2273 358.544 11.0284C358.658 10.8295 358.715 10.608 358.715 10.3636V9.90341C358.715 9.65909 358.659 9.4375 358.548 9.23864C358.441 9.03977 358.239 8.94034 357.943 8.94034C357.659 8.94034 357.458 9.03977 357.338 9.23864C357.219 9.4375 357.159 9.65909 357.159 9.90341ZM351.777 5.36932V4.90909C351.777 4.57955 351.845 4.27699 351.982 4.00142C352.121 3.72585 352.323 3.50568 352.587 3.34091C352.854 3.17614 353.176 3.09375 353.554 3.09375C353.941 3.09375 354.264 3.17614 354.526 3.34091C354.787 3.50568 354.985 3.72585 355.118 4.00142C355.252 4.27699 355.318 4.57955 355.318 4.90909V5.36932C355.318 5.69886 355.25 6.00142 355.114 6.27699C354.98 6.54972 354.781 6.76989 354.517 6.9375C354.256 7.10227 353.935 7.18466 353.554 7.18466C353.168 7.18466 352.843 7.10227 352.578 6.9375C352.317 6.76989 352.118 6.54972 351.982 6.27699C351.845 6.00142 351.777 5.69886 351.777 5.36932ZM352.774 4.90909V5.36932C352.774 5.61364 352.831 5.83523 352.945 6.03409C353.061 6.23295 353.264 6.33239 353.554 6.33239C353.838 6.33239 354.037 6.23295 354.151 6.03409C354.267 5.83523 354.325 5.61364 354.325 5.36932V4.90909C354.325 4.66477 354.27 4.44318 354.159 4.24432C354.048 4.04545 353.847 3.94602 353.554 3.94602C353.27 3.94602 353.068 4.04545 352.949 4.24432C352.833 4.44318 352.774 4.66477 352.774 4.90909ZM352.182 12L358.182 3.27273H359.2L353.2 12H352.182Z"
        fill="#9892A6" />
    <defs>
        <linearGradient id="paint0_linear_506_301" x1="2.19211e-07" y1="7.99998" x2="157"
            y2="7.99998" gradientUnits="userSpaceOnUse">
            <stop stop-color="#3A61ED" stop-opacity="0.52" />
            <stop offset="1" stop-color="#7C3AED" />
        </linearGradient>
    </defs>
</svg>
    